<svg id="Layer_1" data-name="Layer 1" xmlns="http://www.w3.org/2000/svg" xmlns:xlink="http://www.w3.org/1999/xlink" viewBox="0 0 104.12 29.67"><defs><style>.cls-1{fill:none;}.cls-2{clip-path:url(#clip-path);}.cls-3{clip-path:url(#clip-path-2);}.cls-4{fill:url(#linear-gradient);}.cls-5{clip-path:url(#clip-path-3);}.cls-6{clip-path:url(#clip-path-4);}.cls-7{fill:url(#linear-gradient-2);}.cls-8{fill:#e2562f;}</style><clipPath id="clip-path" transform="translate(-0.06 -0.06)"><rect class="cls-1" x="76.97" y="-0.06" width="27.26" height="14"/></clipPath><clipPath id="clip-path-2" transform="translate(-0.06 -0.06)"><path class="cls-1" d="M95.15.62A6.38,6.38,0,0,0,93.1,2a6.68,6.68,0,0,0-1.38,2,6.32,6.32,0,0,0-.5,2.48,6.17,6.17,0,0,0,.53,2.53,6.59,6.59,0,0,0,1.42,2.06,6.43,6.43,0,0,0,2.06,1.38A6.1,6.1,0,0,0,97.7,13a6.18,6.18,0,0,0,2.54-.53,6.51,6.51,0,0,0,2.06-1.43A6.57,6.57,0,0,0,103.67,9a6.08,6.08,0,0,0,.5-2.46A6.22,6.22,0,0,0,103.65,4,6.67,6.67,0,0,0,100.16.57,6.09,6.09,0,0,0,97.7.06a7,7,0,0,0-2.55.56M96,10.48a4.49,4.49,0,0,1-1.37-.93,4.31,4.31,0,0,1-.92-1.35,4,4,0,0,1-.34-1.65,4,4,0,0,1,.36-1.69,4.35,4.35,0,0,1,2.32-2.3,4.19,4.19,0,0,1,1.64-.34,4,4,0,0,1,1.69.36,4.47,4.47,0,0,1,2.29,2.32A4.24,4.24,0,0,1,102,6.55a4,4,0,0,1-.36,1.68,4.37,4.37,0,0,1-1,1.37,4.23,4.23,0,0,1-1.38.92,4.14,4.14,0,0,1-1.63.34A4.74,4.74,0,0,1,96,10.48M81.63.6a6.75,6.75,0,0,0-3.45,3.5,6.25,6.25,0,0,0-.47,3.18,5.25,5.25,0,0,0,.13.71h2.28a3.76,3.76,0,0,1-.29-1.46,3.81,3.81,0,0,1,.37-1.67,4.75,4.75,0,0,1,1-1.37,5.12,5.12,0,0,1,1.38-.92,3.77,3.77,0,0,1,1.56-.35,4.73,4.73,0,0,1,1.75.33,3.77,3.77,0,0,1,1.36.88l.85-.58.57-.42c.17-.13.26-.19.26-.21A6.79,6.79,0,0,0,86.86.64,6.15,6.15,0,0,0,84.14.06,6,6,0,0,0,81.63.6m2.51,5.23V8H86.8v3.4l2.11,1.66a1.31,1.31,0,0,0,0-.27V5.83Z"/></clipPath><linearGradient id="linear-gradient" x1="-355.18" y1="323.06" x2="-354.26" y2="323.06" gradientTransform="translate(10307.47 -9298.15) scale(28.8)" gradientUnits="userSpaceOnUse"><stop offset="0" stop-color="#385bb2"/><stop offset="0" stop-color="#385bb2"/><stop offset="0.01" stop-color="#385cb3"/><stop offset="0.01" stop-color="#385cb3"/><stop offset="0.02" stop-color="#385cb3"/><stop offset="0.02" stop-color="#385db3"/><stop offset="0.02" stop-color="#385db3"/><stop offset="0.03" stop-color="#395db4"/><stop offset="0.03" stop-color="#395db4"/><stop offset="0.04" stop-color="#395eb4"/><stop offset="0.04" stop-color="#395eb4"/><stop offset="0.04" stop-color="#395eb4"/><stop offset="0.05" stop-color="#395fb5"/><stop offset="0.05" stop-color="#395fb5"/><stop offset="0.05" stop-color="#395fb5"/><stop offset="0.06" stop-color="#3a60b5"/><stop offset="0.06" stop-color="#3a60b5"/><stop offset="0.07" stop-color="#3a60b6"/><stop offset="0.07" stop-color="#3a60b6"/><stop offset="0.07" stop-color="#3a61b6"/><stop offset="0.08" stop-color="#3a61b6"/><stop offset="0.08" stop-color="#3a61b6"/><stop offset="0.09" stop-color="#3a62b7"/><stop offset="0.09" stop-color="#3b62b7"/><stop offset="0.09" stop-color="#3b62b7"/><stop offset="0.1" stop-color="#3b63b7"/><stop offset="0.1" stop-color="#3b63b7"/><stop offset="0.11" stop-color="#3b63b8"/><stop offset="0.11" stop-color="#3b63b8"/><stop offset="0.11" stop-color="#3b64b8"/><stop offset="0.12" stop-color="#3b64b8"/><stop offset="0.12" stop-color="#3c64b8"/><stop offset="0.13" stop-color="#3c65b9"/><stop offset="0.13" stop-color="#3c65b9"/><stop offset="0.13" stop-color="#3c65b9"/><stop offset="0.14" stop-color="#3c66b9"/><stop offset="0.14" stop-color="#3c66ba"/><stop offset="0.14" stop-color="#3c66ba"/><stop offset="0.15" stop-color="#3c67ba"/><stop offset="0.15" stop-color="#3d67ba"/><stop offset="0.16" stop-color="#3d67ba"/><stop offset="0.16" stop-color="#3d68bb"/><stop offset="0.16" stop-color="#3d68bb"/><stop offset="0.17" stop-color="#3d68bb"/><stop offset="0.17" stop-color="#3d68bb"/><stop offset="0.18" stop-color="#3d69bb"/><stop offset="0.18" stop-color="#3d69bc"/><stop offset="0.18" stop-color="#3e69bc"/><stop offset="0.19" stop-color="#3e6abc"/><stop offset="0.19" stop-color="#3e6abc"/><stop offset="0.2" stop-color="#3e6abc"/><stop offset="0.2" stop-color="#3e6bbd"/><stop offset="0.2" stop-color="#3e6bbd"/><stop offset="0.21" stop-color="#3e6bbd"/><stop offset="0.21" stop-color="#3e6cbd"/><stop offset="0.21" stop-color="#3f6cbd"/><stop offset="0.22" stop-color="#3f6cbe"/><stop offset="0.22" stop-color="#3f6dbe"/><stop offset="0.23" stop-color="#3f6dbe"/><stop offset="0.23" stop-color="#3f6dbe"/><stop offset="0.23" stop-color="#3f6ebf"/><stop offset="0.24" stop-color="#3f6ebf"/><stop offset="0.24" stop-color="#406ebf"/><stop offset="0.25" stop-color="#406fbf"/><stop offset="0.25" stop-color="#406fbf"/><stop offset="0.25" stop-color="#406fc0"/><stop offset="0.26" stop-color="#4070c0"/><stop offset="0.26" stop-color="#4070c0"/><stop offset="0.27" stop-color="#4070c0"/><stop offset="0.27" stop-color="#4071c0"/><stop offset="0.27" stop-color="#4171c1"/><stop offset="0.28" stop-color="#4171c1"/><stop offset="0.28" stop-color="#4172c1"/><stop offset="0.29" stop-color="#4172c1"/><stop offset="0.29" stop-color="#4172c1"/><stop offset="0.29" stop-color="#4173c2"/><stop offset="0.3" stop-color="#4173c2"/><stop offset="0.3" stop-color="#4273c2"/><stop offset="0.3" stop-color="#4274c2"/><stop offset="0.31" stop-color="#4274c3"/><stop offset="0.31" stop-color="#4274c3"/><stop offset="0.32" stop-color="#4275c3"/><stop offset="0.32" stop-color="#4275c3"/><stop offset="0.32" stop-color="#4275c3"/><stop offset="0.33" stop-color="#4376c4"/><stop offset="0.33" stop-color="#4376c4"/><stop offset="0.34" stop-color="#4376c4"/><stop offset="0.34" stop-color="#4377c4"/><stop offset="0.34" stop-color="#4377c4"/><stop offset="0.35" stop-color="#4377c5"/><stop offset="0.35" stop-color="#4378c5"/><stop offset="0.36" stop-color="#4478c5"/><stop offset="0.36" stop-color="#4478c5"/><stop offset="0.36" stop-color="#4479c5"/><stop offset="0.37" stop-color="#4479c6"/><stop offset="0.37" stop-color="#4479c6"/><stop offset="0.38" stop-color="#447ac6"/><stop offset="0.38" stop-color="#447ac6"/><stop offset="0.38" stop-color="#447ac7"/><stop offset="0.39" stop-color="#457bc7"/><stop offset="0.39" stop-color="#457bc7"/><stop offset="0.39" stop-color="#457bc7"/><stop offset="0.4" stop-color="#457cc7"/><stop offset="0.4" stop-color="#457cc8"/><stop offset="0.41" stop-color="#457cc8"/><stop offset="0.41" stop-color="#467dc8"/><stop offset="0.41" stop-color="#467dc8"/><stop offset="0.42" stop-color="#467dc8"/><stop offset="0.42" stop-color="#467ec9"/><stop offset="0.43" stop-color="#467ec9"/><stop offset="0.43" stop-color="#467ec9"/><stop offset="0.43" stop-color="#467fc9"/><stop offset="0.44" stop-color="#477fca"/><stop offset="0.44" stop-color="#477fca"/><stop offset="0.45" stop-color="#4780ca"/><stop offset="0.45" stop-color="#4780ca"/><stop offset="0.45" stop-color="#4781ca"/><stop offset="0.46" stop-color="#4781cb"/><stop offset="0.46" stop-color="#4781cb"/><stop offset="0.46" stop-color="#4882cb"/><stop offset="0.47" stop-color="#4882cb"/><stop offset="0.47" stop-color="#4882cb"/><stop offset="0.48" stop-color="#4883cc"/><stop offset="0.48" stop-color="#4883cc"/><stop offset="0.48" stop-color="#4883cc"/><stop offset="0.49" stop-color="#4884cc"/><stop offset="0.49" stop-color="#4984cd"/><stop offset="0.5" stop-color="#4984cd"/><stop offset="0.5" stop-color="#4985cd"/><stop offset="0.5" stop-color="#4985cd"/><stop offset="0.51" stop-color="#4986cd"/><stop offset="0.51" stop-color="#4986ce"/><stop offset="0.52" stop-color="#4986ce"/><stop offset="0.52" stop-color="#4a87ce"/><stop offset="0.52" stop-color="#4a87ce"/><stop offset="0.53" stop-color="#4a87ce"/><stop offset="0.53" stop-color="#4a88cf"/><stop offset="0.54" stop-color="#4a88cf"/><stop offset="0.54" stop-color="#4a88cf"/><stop offset="0.54" stop-color="#4b89cf"/><stop offset="0.55" stop-color="#4b89d0"/><stop offset="0.55" stop-color="#4b8ad0"/><stop offset="0.55" stop-color="#4b8ad0"/><stop offset="0.56" stop-color="#4b8ad0"/><stop offset="0.56" stop-color="#4b8bd0"/><stop offset="0.57" stop-color="#4b8bd1"/><stop offset="0.57" stop-color="#4c8bd1"/><stop offset="0.57" stop-color="#4c8cd1"/><stop offset="0.58" stop-color="#4c8cd1"/><stop offset="0.58" stop-color="#4c8cd2"/><stop offset="0.59" stop-color="#4c8dd2"/><stop offset="0.59" stop-color="#4c8dd2"/><stop offset="0.59" stop-color="#4d8ed2"/><stop offset="0.6" stop-color="#4d8ed2"/><stop offset="0.6" stop-color="#4d8ed3"/><stop offset="0.61" stop-color="#4d8fd3"/><stop offset="0.61" stop-color="#4d8fd3"/><stop offset="0.61" stop-color="#4d8fd3"/><stop offset="0.62" stop-color="#4e90d3"/><stop offset="0.62" stop-color="#4e90d4"/><stop offset="0.63" stop-color="#4e91d4"/><stop offset="0.63" stop-color="#4e91d4"/><stop offset="0.63" stop-color="#4e91d4"/><stop offset="0.64" stop-color="#4e92d5"/><stop offset="0.64" stop-color="#4e92d5"/><stop offset="0.64" stop-color="#4f92d5"/><stop offset="0.65" stop-color="#4f93d5"/><stop offset="0.65" stop-color="#4f93d5"/><stop offset="0.66" stop-color="#4f94d6"/><stop offset="0.66" stop-color="#4f94d6"/><stop offset="0.66" stop-color="#4f94d6"/><stop offset="0.67" stop-color="#5095d6"/><stop offset="0.67" stop-color="#5095d7"/><stop offset="0.68" stop-color="#5095d7"/><stop offset="0.68" stop-color="#5096d7"/><stop offset="0.68" stop-color="#5096d7"/><stop offset="0.69" stop-color="#5097d7"/><stop offset="0.69" stop-color="#5197d8"/><stop offset="0.7" stop-color="#5197d8"/><stop offset="0.7" stop-color="#5198d8"/><stop offset="0.7" stop-color="#5198d8"/><stop offset="0.71" stop-color="#5199d9"/><stop offset="0.71" stop-color="#5199d9"/><stop offset="0.71" stop-color="#5299d9"/><stop offset="0.72" stop-color="#529ad9"/><stop offset="0.72" stop-color="#529ad9"/><stop offset="0.73" stop-color="#529bda"/><stop offset="0.73" stop-color="#529bda"/><stop offset="0.73" stop-color="#529bda"/><stop offset="0.74" stop-color="#539cda"/><stop offset="0.74" stop-color="#539cdb"/><stop offset="0.75" stop-color="#539cdb"/><stop offset="0.75" stop-color="#539ddb"/><stop offset="0.75" stop-color="#539ddb"/><stop offset="0.76" stop-color="#539edb"/><stop offset="0.76" stop-color="#549edc"/><stop offset="0.77" stop-color="#549edc"/><stop offset="0.77" stop-color="#549fdc"/><stop offset="0.77" stop-color="#549fdc"/><stop offset="0.78" stop-color="#54a0dd"/><stop offset="0.78" stop-color="#54a0dd"/><stop offset="0.79" stop-color="#55a0dd"/><stop offset="0.79" stop-color="#55a1dd"/><stop offset="0.79" stop-color="#55a1dd"/><stop offset="0.8" stop-color="#55a2de"/><stop offset="0.8" stop-color="#55a2de"/><stop offset="0.8" stop-color="#55a2de"/><stop offset="0.81" stop-color="#56a3de"/><stop offset="0.81" stop-color="#56a3df"/><stop offset="0.82" stop-color="#56a4df"/><stop offset="0.82" stop-color="#56a4df"/><stop offset="0.82" stop-color="#56a4df"/><stop offset="0.83" stop-color="#56a5df"/><stop offset="0.83" stop-color="#57a5e0"/><stop offset="0.84" stop-color="#57a6e0"/><stop offset="0.84" stop-color="#57a6e0"/><stop offset="0.84" stop-color="#57a6e0"/><stop offset="0.85" stop-color="#57a7e1"/><stop offset="0.85" stop-color="#57a7e1"/><stop offset="0.86" stop-color="#58a8e1"/><stop offset="0.86" stop-color="#58a8e1"/><stop offset="0.86" stop-color="#58a8e1"/><stop offset="0.87" stop-color="#58a9e2"/><stop offset="0.87" stop-color="#58a9e2"/><stop offset="0.88" stop-color="#59aae2"/><stop offset="0.88" stop-color="#59aae2"/><stop offset="0.88" stop-color="#59aae3"/><stop offset="0.89" stop-color="#59abe3"/><stop offset="0.89" stop-color="#59abe3"/><stop offset="0.89" stop-color="#59ace3"/><stop offset="0.9" stop-color="#5aace3"/><stop offset="0.9" stop-color="#5aade4"/><stop offset="0.91" stop-color="#5aade4"/><stop offset="0.91" stop-color="#5aade4"/><stop offset="0.91" stop-color="#5aaee4"/><stop offset="0.92" stop-color="#5aaee5"/><stop offset="0.92" stop-color="#5bafe5"/><stop offset="0.93" stop-color="#5bafe5"/><stop offset="0.93" stop-color="#5bafe5"/><stop offset="0.93" stop-color="#5bb0e5"/><stop offset="0.94" stop-color="#5bb0e6"/><stop offset="0.94" stop-color="#5cb1e6"/><stop offset="0.95" stop-color="#5cb1e6"/><stop offset="0.95" stop-color="#5cb2e6"/><stop offset="0.95" stop-color="#5cb2e7"/><stop offset="0.96" stop-color="#5cb2e7"/><stop offset="0.96" stop-color="#5cb3e7"/><stop offset="0.96" stop-color="#5db3e7"/><stop offset="0.97" stop-color="#5db4e7"/><stop offset="0.97" stop-color="#5db4e8"/><stop offset="0.98" stop-color="#5db4e8"/><stop offset="0.98" stop-color="#5db5e8"/><stop offset="0.98" stop-color="#5eb5e8"/><stop offset="0.99" stop-color="#5eb6e9"/><stop offset="0.99" stop-color="#5eb6e9"/><stop offset="1" stop-color="#5eb7e9"/><stop offset="1" stop-color="#5eb7e9"/></linearGradient><clipPath id="clip-path-3" transform="translate(-0.06 -0.06)"><rect class="cls-1" x="-0.03" y="13.94" width="104.26" height="10"/></clipPath><clipPath id="clip-path-4" transform="translate(-0.06 -0.06)"><path class="cls-1" d="M99.22,18.17l-5-3.89v9.5h.93V16.23l4,3.16,4-3.16v7.55h.92v-9.5ZM85,14.28v9.5h6.12v-.92H85.94V19.51h4.32v-.93H85.94V15.21h5.18v-.93Zm-9.62,0v.93h3.39v8.57h.93V15.21h3.39v-.93Zm-5.11.16a3,3,0,0,0-1,.46,2.5,2.5,0,0,0-.7.78,2.22,2.22,0,0,0-.27,1.13,2.37,2.37,0,0,0,.34,1.34,2.47,2.47,0,0,0,.86.75,4.68,4.68,0,0,0,1.12.41c.4.1.78.2,1.12.31a2.69,2.69,0,0,1,.86.46,1,1,0,0,1,.34.84,1.71,1.71,0,0,1-.19.82,1.87,1.87,0,0,1-.48.6,2,2,0,0,1-.66.38,2,2,0,0,1-.72.14,3.71,3.71,0,0,1-.92-.13,3.13,3.13,0,0,1-.93-.44L68.4,23a4.53,4.53,0,0,0,1.21.63,4,4,0,0,0,1.24.19,3.67,3.67,0,0,0,1.22-.19A2.74,2.74,0,0,0,73,23a2.44,2.44,0,0,0,.63-.9,3,3,0,0,0,.23-1.21,2.15,2.15,0,0,0-.34-1.27,2.52,2.52,0,0,0-.86-.73,5.78,5.78,0,0,0-1.12-.43,9.9,9.9,0,0,1-1.12-.34,2.54,2.54,0,0,1-.86-.48,1.08,1.08,0,0,1-.34-.86,1.54,1.54,0,0,1,.18-.77,1.41,1.41,0,0,1,.48-.49,2.12,2.12,0,0,1,.66-.26,3,3,0,0,1,.73-.08,3.35,3.35,0,0,1,.93.12,2.69,2.69,0,0,1,.91.43l.67-.67a4.18,4.18,0,0,0-1.23-.62,3.93,3.93,0,0,0-1.22-.19,3.75,3.75,0,0,0-1.1.16m-4.83-.16-3.09,4.15-3.12-4.15H58l3.85,5.23v4.27h.94V19.51l3.86-5.23Zm-12.7.16a3,3,0,0,0-1,.46,2.39,2.39,0,0,0-.7.78,2.13,2.13,0,0,0-.28,1.13,2.37,2.37,0,0,0,.34,1.34,2.47,2.47,0,0,0,.86.75,4.68,4.68,0,0,0,1.12.41c.41.1.78.2,1.13.31a2.75,2.75,0,0,1,.85.46,1,1,0,0,1,.35.84,1.72,1.72,0,0,1-.2.82,2,2,0,0,1-.47.6,2.18,2.18,0,0,1-.66.38,2.14,2.14,0,0,1-.73.14,3.63,3.63,0,0,1-.91-.13,3.18,3.18,0,0,1-.94-.44l-.66.67a4.69,4.69,0,0,0,1.21.63,4,4,0,0,0,1.25.19,3.65,3.65,0,0,0,1.21-.19,2.66,2.66,0,0,0,1-.56,2.44,2.44,0,0,0,.63-.9,3,3,0,0,0,.23-1.21A2.08,2.08,0,0,0,56,19.65a2.52,2.52,0,0,0-.86-.73,5.78,5.78,0,0,0-1.12-.43,9.9,9.9,0,0,1-1.12-.34,2.54,2.54,0,0,1-.86-.48,1.11,1.11,0,0,1-.34-.86,1.35,1.35,0,0,1,.67-1.26,2,2,0,0,1,.65-.26,3,3,0,0,1,.73-.08,3.3,3.3,0,0,1,.93.12,2.6,2.6,0,0,1,.91.43l.67-.67a4.18,4.18,0,0,0-1.23-.62,3.89,3.89,0,0,0-1.22-.19,3.75,3.75,0,0,0-1.1.16m-10.32,0a3,3,0,0,0-1,.46,2.39,2.39,0,0,0-.7.78,2.23,2.23,0,0,0-.28,1.13,2.14,2.14,0,0,0,1.21,2.09,4.53,4.53,0,0,0,1.12.41c.4.1.77.2,1.12.31a2.64,2.64,0,0,1,.85.46,1,1,0,0,1,.35.84,1.83,1.83,0,0,1-.19.82,2.06,2.06,0,0,1-1.14,1,2.13,2.13,0,0,1-.72.14,3.65,3.65,0,0,1-.92-.13,3.18,3.18,0,0,1-.94-.44l-.66.67a4.58,4.58,0,0,0,1.22.63,3.92,3.92,0,0,0,1.24.19,3.65,3.65,0,0,0,1.21-.19,2.66,2.66,0,0,0,1-.56,2.58,2.58,0,0,0,.64-.9,3,3,0,0,0,.22-1.21,2.08,2.08,0,0,0-.34-1.27,2.43,2.43,0,0,0-.86-.73,5.54,5.54,0,0,0-1.12-.43,10.57,10.57,0,0,1-1.12-.34,2.64,2.64,0,0,1-.86-.48,1.08,1.08,0,0,1-.34-.86A1.44,1.44,0,0,1,41.6,16a1.41,1.41,0,0,1,.48-.49,2,2,0,0,1,.65-.26,3,3,0,0,1,.73-.08,3.3,3.3,0,0,1,.93.12,2.73,2.73,0,0,1,.92.43l.67-.67a4.11,4.11,0,0,0-1.24-.62,3.89,3.89,0,0,0-1.22-.19,3.8,3.8,0,0,0-1.1.16m-5.33,9.34H38v-9.5h-.93Zm-3.82-9.5v7.2l-6.93-7.2v9.5h.93v-7.2l6.93,7.2v-9.5Zm-10.75,0v7.2l-6.93-7.2v9.5h.93v-7.2l6.93,7.2v-9.5Zm-15.93,0v9.5h6.12v-.92H7.52V19.51h4.33v-.93H7.52V15.21h5.19v-.93Zm-6.53,0v9.5H1V15.21H4.38v-.93Z"/></clipPath><linearGradient id="linear-gradient-2" x1="-364.55" y1="315.9" x2="-363.58" y2="315.9" gradientTransform="translate(39128 -33887.09) scale(107.33)" gradientUnits="userSpaceOnUse"><stop offset="0" stop-color="#3759b1"/><stop offset="0" stop-color="#375ab1"/><stop offset="0.01" stop-color="#375ab1"/><stop offset="0.01" stop-color="#375ab2"/><stop offset="0.02" stop-color="#385bb2"/><stop offset="0.02" stop-color="#385bb2"/><stop offset="0.02" stop-color="#385bb2"/><stop offset="0.03" stop-color="#385bb2"/><stop offset="0.03" stop-color="#385cb3"/><stop offset="0.04" stop-color="#385cb3"/><stop offset="0.04" stop-color="#385cb3"/><stop offset="0.04" stop-color="#385db3"/><stop offset="0.05" stop-color="#395db3"/><stop offset="0.05" stop-color="#395db4"/><stop offset="0.05" stop-color="#395eb4"/><stop offset="0.06" stop-color="#395eb4"/><stop offset="0.06" stop-color="#395eb4"/><stop offset="0.07" stop-color="#395fb5"/><stop offset="0.07" stop-color="#395fb5"/><stop offset="0.07" stop-color="#395fb5"/><stop offset="0.08" stop-color="#3a60b5"/><stop offset="0.08" stop-color="#3a60b5"/><stop offset="0.09" stop-color="#3a60b6"/><stop offset="0.09" stop-color="#3a60b6"/><stop offset="0.09" stop-color="#3a61b6"/><stop offset="0.1" stop-color="#3a61b6"/><stop offset="0.1" stop-color="#3a61b6"/><stop offset="0.11" stop-color="#3a62b7"/><stop offset="0.11" stop-color="#3b62b7"/><stop offset="0.11" stop-color="#3b62b7"/><stop offset="0.12" stop-color="#3b63b7"/><stop offset="0.12" stop-color="#3b63b8"/><stop offset="0.13" stop-color="#3b63b8"/><stop offset="0.13" stop-color="#3b64b8"/><stop offset="0.13" stop-color="#3b64b8"/><stop offset="0.14" stop-color="#3b64b8"/><stop offset="0.14" stop-color="#3c65b9"/><stop offset="0.14" stop-color="#3c65b9"/><stop offset="0.15" stop-color="#3c65b9"/><stop offset="0.15" stop-color="#3c66b9"/><stop offset="0.16" stop-color="#3c66ba"/><stop offset="0.16" stop-color="#3c66ba"/><stop offset="0.16" stop-color="#3c67ba"/><stop offset="0.17" stop-color="#3d67ba"/><stop offset="0.17" stop-color="#3d67ba"/><stop offset="0.18" stop-color="#3d68bb"/><stop offset="0.18" stop-color="#3d68bb"/><stop offset="0.18" stop-color="#3d68bb"/><stop offset="0.19" stop-color="#3d69bb"/><stop offset="0.19" stop-color="#3d69bc"/><stop offset="0.2" stop-color="#3e69bc"/><stop offset="0.2" stop-color="#3e6abc"/><stop offset="0.2" stop-color="#3e6abc"/><stop offset="0.21" stop-color="#3e6abc"/><stop offset="0.21" stop-color="#3e6bbd"/><stop offset="0.21" stop-color="#3e6bbd"/><stop offset="0.22" stop-color="#3e6bbd"/><stop offset="0.22" stop-color="#3e6cbd"/><stop offset="0.23" stop-color="#3f6cbd"/><stop offset="0.23" stop-color="#3f6cbe"/><stop offset="0.23" stop-color="#3f6dbe"/><stop offset="0.24" stop-color="#3f6dbe"/><stop offset="0.24" stop-color="#3f6dbe"/><stop offset="0.25" stop-color="#3f6ebf"/><stop offset="0.25" stop-color="#3f6ebf"/><stop offset="0.25" stop-color="#406ebf"/><stop offset="0.26" stop-color="#406fbf"/><stop offset="0.26" stop-color="#406fbf"/><stop offset="0.27" stop-color="#406fc0"/><stop offset="0.27" stop-color="#4070c0"/><stop offset="0.27" stop-color="#4070c0"/><stop offset="0.28" stop-color="#4070c0"/><stop offset="0.28" stop-color="#4171c1"/><stop offset="0.29" stop-color="#4171c1"/><stop offset="0.29" stop-color="#4171c1"/><stop offset="0.29" stop-color="#4172c1"/><stop offset="0.3" stop-color="#4172c1"/><stop offset="0.3" stop-color="#4173c2"/><stop offset="0.3" stop-color="#4173c2"/><stop offset="0.31" stop-color="#4273c2"/><stop offset="0.31" stop-color="#4274c2"/><stop offset="0.32" stop-color="#4274c3"/><stop offset="0.32" stop-color="#4274c3"/><stop offset="0.32" stop-color="#4275c3"/><stop offset="0.33" stop-color="#4275c3"/><stop offset="0.33" stop-color="#4275c3"/><stop offset="0.34" stop-color="#4376c4"/><stop offset="0.34" stop-color="#4376c4"/><stop offset="0.34" stop-color="#4376c4"/><stop offset="0.35" stop-color="#4377c4"/><stop offset="0.35" stop-color="#4377c5"/><stop offset="0.36" stop-color="#4377c5"/><stop offset="0.36" stop-color="#4378c5"/><stop offset="0.36" stop-color="#4478c5"/><stop offset="0.37" stop-color="#4479c5"/><stop offset="0.37" stop-color="#4479c6"/><stop offset="0.38" stop-color="#4479c6"/><stop offset="0.38" stop-color="#447ac6"/><stop offset="0.38" stop-color="#447ac6"/><stop offset="0.39" stop-color="#457ac7"/><stop offset="0.39" stop-color="#457bc7"/><stop offset="0.39" stop-color="#457bc7"/><stop offset="0.4" stop-color="#457bc7"/><stop offset="0.4" stop-color="#457cc8"/><stop offset="0.41" stop-color="#457cc8"/><stop offset="0.41" stop-color="#457dc8"/><stop offset="0.41" stop-color="#467dc8"/><stop offset="0.42" stop-color="#467dc8"/><stop offset="0.42" stop-color="#467ec9"/><stop offset="0.43" stop-color="#467ec9"/><stop offset="0.43" stop-color="#467ec9"/><stop offset="0.43" stop-color="#467fc9"/><stop offset="0.44" stop-color="#477fca"/><stop offset="0.44" stop-color="#477fca"/><stop offset="0.45" stop-color="#4780ca"/><stop offset="0.45" stop-color="#4780ca"/><stop offset="0.45" stop-color="#4781ca"/><stop offset="0.46" stop-color="#4781cb"/><stop offset="0.46" stop-color="#4781cb"/><stop offset="0.46" stop-color="#4882cb"/><stop offset="0.47" stop-color="#4882cb"/><stop offset="0.47" stop-color="#4882cc"/><stop offset="0.48" stop-color="#4883cc"/><stop offset="0.48" stop-color="#4883cc"/><stop offset="0.48" stop-color="#4884cc"/><stop offset="0.49" stop-color="#4984cc"/><stop offset="0.49" stop-color="#4984cd"/><stop offset="0.5" stop-color="#4985cd"/><stop offset="0.5" stop-color="#4985cd"/><stop offset="0.5" stop-color="#4985cd"/><stop offset="0.51" stop-color="#4986ce"/><stop offset="0.51" stop-color="#4986ce"/><stop offset="0.52" stop-color="#4a87ce"/><stop offset="0.52" stop-color="#4a87ce"/><stop offset="0.52" stop-color="#4a87cf"/><stop offset="0.53" stop-color="#4a88cf"/><stop offset="0.53" stop-color="#4a88cf"/><stop offset="0.54" stop-color="#4a89cf"/><stop offset="0.54" stop-color="#4b89cf"/><stop offset="0.54" stop-color="#4b89d0"/><stop offset="0.55" stop-color="#4b8ad0"/><stop offset="0.55" stop-color="#4b8ad0"/><stop offset="0.55" stop-color="#4b8ad0"/><stop offset="0.56" stop-color="#4b8bd1"/><stop offset="0.56" stop-color="#4c8bd1"/><stop offset="0.57" stop-color="#4c8cd1"/><stop offset="0.57" stop-color="#4c8cd1"/><stop offset="0.57" stop-color="#4c8cd1"/><stop offset="0.58" stop-color="#4c8dd2"/><stop offset="0.58" stop-color="#4c8dd2"/><stop offset="0.59" stop-color="#4d8ed2"/><stop offset="0.59" stop-color="#4d8ed2"/><stop offset="0.59" stop-color="#4d8ed3"/><stop offset="0.6" stop-color="#4d8fd3"/><stop offset="0.6" stop-color="#4d8fd3"/><stop offset="0.61" stop-color="#4d90d3"/><stop offset="0.61" stop-color="#4e90d4"/><stop offset="0.61" stop-color="#4e90d4"/><stop offset="0.62" stop-color="#4e91d4"/><stop offset="0.62" stop-color="#4e91d4"/><stop offset="0.63" stop-color="#4e92d4"/><stop offset="0.63" stop-color="#4e92d5"/><stop offset="0.63" stop-color="#4f92d5"/><stop offset="0.64" stop-color="#4f93d5"/><stop offset="0.64" stop-color="#4f93d5"/><stop offset="0.64" stop-color="#4f94d6"/><stop offset="0.65" stop-color="#4f94d6"/><stop offset="0.65" stop-color="#4f94d6"/><stop offset="0.66" stop-color="#5095d6"/><stop offset="0.66" stop-color="#5095d7"/><stop offset="0.66" stop-color="#5096d7"/><stop offset="0.67" stop-color="#5096d7"/><stop offset="0.67" stop-color="#5096d7"/><stop offset="0.68" stop-color="#5097d7"/><stop offset="0.68" stop-color="#5197d8"/><stop offset="0.68" stop-color="#5198d8"/><stop offset="0.69" stop-color="#5198d8"/><stop offset="0.69" stop-color="#5198d8"/><stop offset="0.7" stop-color="#5199d9"/><stop offset="0.7" stop-color="#5199d9"/><stop offset="0.7" stop-color="#529ad9"/><stop offset="0.71" stop-color="#529ad9"/><stop offset="0.71" stop-color="#529ada"/><stop offset="0.71" stop-color="#529bda"/><stop offset="0.72" stop-color="#529bda"/><stop offset="0.72" stop-color="#539cda"/><stop offset="0.73" stop-color="#539cdb"/><stop offset="0.73" stop-color="#539cdb"/><stop offset="0.73" stop-color="#539ddb"/><stop offset="0.74" stop-color="#539ddb"/><stop offset="0.74" stop-color="#539edb"/><stop offset="0.75" stop-color="#549edc"/><stop offset="0.75" stop-color="#549fdc"/><stop offset="0.75" stop-color="#549fdc"/><stop offset="0.76" stop-color="#549fdc"/><stop offset="0.76" stop-color="#54a0dd"/><stop offset="0.77" stop-color="#54a0dd"/><stop offset="0.77" stop-color="#55a1dd"/><stop offset="0.77" stop-color="#55a1dd"/><stop offset="0.78" stop-color="#55a1de"/><stop offset="0.78" stop-color="#55a2de"/><stop offset="0.79" stop-color="#55a2de"/><stop offset="0.79" stop-color="#56a3de"/><stop offset="0.79" stop-color="#56a3de"/><stop offset="0.8" stop-color="#56a4df"/><stop offset="0.8" stop-color="#56a4df"/><stop offset="0.8" stop-color="#56a4df"/><stop offset="0.81" stop-color="#56a5df"/><stop offset="0.81" stop-color="#57a5e0"/><stop offset="0.82" stop-color="#57a6e0"/><stop offset="0.82" stop-color="#57a6e0"/><stop offset="0.82" stop-color="#57a7e0"/><stop offset="0.83" stop-color="#57a7e1"/><stop offset="0.83" stop-color="#58a7e1"/><stop offset="0.84" stop-color="#58a8e1"/><stop offset="0.84" stop-color="#58a8e1"/><stop offset="0.84" stop-color="#58a9e2"/><stop offset="0.85" stop-color="#58a9e2"/><stop offset="0.85" stop-color="#58aae2"/><stop offset="0.86" stop-color="#59aae2"/><stop offset="0.86" stop-color="#59aae2"/><stop offset="0.86" stop-color="#59abe3"/><stop offset="0.87" stop-color="#59abe3"/><stop offset="0.87" stop-color="#59ace3"/><stop offset="0.88" stop-color="#5aace3"/><stop offset="0.88" stop-color="#5aade4"/><stop offset="0.88" stop-color="#5aade4"/><stop offset="0.89" stop-color="#5aade4"/><stop offset="0.89" stop-color="#5aaee4"/><stop offset="0.89" stop-color="#5baee5"/><stop offset="0.9" stop-color="#5bafe5"/><stop offset="0.9" stop-color="#5bafe5"/><stop offset="0.91" stop-color="#5bb0e5"/><stop offset="0.91" stop-color="#5bb0e6"/><stop offset="0.91" stop-color="#5bb1e6"/><stop offset="0.92" stop-color="#5cb1e6"/><stop offset="0.92" stop-color="#5cb1e6"/><stop offset="0.93" stop-color="#5cb2e7"/><stop offset="0.93" stop-color="#5cb2e7"/><stop offset="0.93" stop-color="#5cb3e7"/><stop offset="0.94" stop-color="#5db3e7"/><stop offset="0.94" stop-color="#5db4e7"/><stop offset="0.95" stop-color="#5db4e8"/><stop offset="0.95" stop-color="#5db5e8"/><stop offset="0.95" stop-color="#5db5e8"/><stop offset="0.96" stop-color="#5eb5e8"/><stop offset="0.96" stop-color="#5eb6e9"/><stop offset="0.96" stop-color="#5eb6e9"/><stop offset="0.97" stop-color="#5eb7e9"/><stop offset="0.97" stop-color="#5eb7e9"/><stop offset="0.98" stop-color="#5fb8ea"/><stop offset="0.98" stop-color="#5fb8ea"/><stop offset="0.98" stop-color="#5fb9ea"/><stop offset="0.99" stop-color="#5fb9ea"/><stop offset="0.99" stop-color="#5fb9eb"/><stop offset="1" stop-color="#5fbaeb"/><stop offset="1" stop-color="#60baeb"/></linearGradient></defs><g class="cls-2"><g class="cls-3"><path class="cls-4" d="M77.67,13.05V.06h26.5v13Z" transform="translate(-0.06 -0.06)"/></g></g><g class="cls-5"><g class="cls-6"><path class="cls-7" d="M.06,23.78v-9.5H104.18v9.5Z" transform="translate(-0.06 -0.06)"/></g></g><path class="cls-8" d="M41.8,26.08H40.72v-.39h2.61v.39H42.25v2.76H41.8Z" transform="translate(-0.06 -0.06)"/><path class="cls-8" d="M46.08,27.47v1.37h-.43V27.51c0-.46-.23-.69-.64-.69a.71.71,0,0,0-.76.79v1.23h-.43V25.5h.43v1.29a1,1,0,0,1,.84-.36A.92.92,0,0,1,46.08,27.47Z" transform="translate(-0.06 -0.06)"/><path class="cls-8" d="M49.11,27.79H47.17a.81.81,0,0,0,.87.7.89.89,0,0,0,.68-.29l.24.28a1.3,1.3,0,0,1-2.22-.84,1.17,1.17,0,0,1,1.2-1.21,1.15,1.15,0,0,1,1.18,1.23S49.11,27.75,49.11,27.79Zm-1.94-.31H48.7a.74.74,0,0,0-.76-.69A.75.75,0,0,0,47.17,27.48Z" transform="translate(-0.06 -0.06)"/><path class="cls-8" d="M50.75,28.59l.18-.35a1.49,1.49,0,0,0,.84.25c.4,0,.56-.12.56-.32,0-.54-1.5-.08-1.5-1,0-.43.38-.72,1-.72a1.7,1.7,0,0,1,.87.22L52.5,27a1.21,1.21,0,0,0-.68-.19c-.38,0-.57.14-.57.33,0,.56,1.52.1,1.52,1,0,.43-.4.7-1,.7A1.78,1.78,0,0,1,50.75,28.59Z" transform="translate(-0.06 -0.06)"/><path class="cls-8" d="M55.26,27.4v1.44h-.41v-.32a.88.88,0,0,1-.78.34c-.54,0-.89-.28-.89-.7s.25-.69,1-.69h.69v-.09c0-.37-.22-.58-.64-.58a1.2,1.2,0,0,0-.76.26l-.18-.32a1.58,1.58,0,0,1,1-.31C54.89,26.43,55.26,26.74,55.26,27.4Zm-.43.71v-.33h-.67c-.43,0-.55.16-.55.36s.2.39.53.39A.7.7,0,0,0,54.83,28.11Z" transform="translate(-0.06 -0.06)"/><path class="cls-8" d="M60.08,27.47v1.37h-.43V27.51c0-.46-.23-.69-.62-.69s-.71.27-.71.79v1.23h-.43V27.51c0-.46-.23-.69-.62-.69a.69.69,0,0,0-.72.79v1.23h-.43V26.45h.42v.36a.94.94,0,0,1,.82-.38.89.89,0,0,1,.83.44,1.07,1.07,0,0,1,.92-.44A.91.91,0,0,1,60.08,27.47Z" transform="translate(-0.06 -0.06)"/><path class="cls-8" d="M63.1,27.79H61.17a.8.8,0,0,0,.86.7.91.91,0,0,0,.69-.29l.24.28a1.21,1.21,0,0,1-.94.38,1.2,1.2,0,0,1-1.29-1.22,1.17,1.17,0,0,1,1.2-1.21,1.15,1.15,0,0,1,1.18,1.23A.62.62,0,0,1,63.1,27.79Zm-1.93-.31H62.7a.76.76,0,0,0-.77-.69A.74.74,0,0,0,61.17,27.48Z" transform="translate(-0.06 -0.06)"/><path class="cls-8" d="M67.33,26.45v2.06a1.09,1.09,0,0,1-1.24,1.23A1.73,1.73,0,0,1,65,29.38l.21-.33a1.44,1.44,0,0,0,.92.31c.56,0,.81-.26.81-.8v-.19a1.06,1.06,0,0,1-.86.37,1.16,1.16,0,1,1,0-2.31,1.11,1.11,0,0,1,.89.39v-.37Zm-.43,1.13a.82.82,0,0,0-1.64,0,.82.82,0,0,0,1.64,0Z" transform="translate(-0.06 -0.06)"/><path class="cls-8" d="M70.1,27.4v1.44h-.41v-.32a.87.87,0,0,1-.78.34c-.54,0-.88-.28-.88-.7s.25-.69,1-.69h.68v-.09c0-.37-.21-.58-.64-.58a1.17,1.17,0,0,0-.75.26l-.19-.32a1.6,1.6,0,0,1,1-.31C69.73,26.43,70.1,26.74,70.1,27.4Zm-.43.71v-.33H69c-.42,0-.54.16-.54.36s.19.39.52.39A.69.69,0,0,0,69.67,28.11Z" transform="translate(-0.06 -0.06)"/><path class="cls-8" d="M74.93,27.47v1.37H74.5V27.51c0-.46-.23-.69-.62-.69a.69.69,0,0,0-.72.79v1.23h-.43V27.51c0-.46-.22-.69-.62-.69s-.71.27-.71.79v1.23H71V26.45h.41v.36a.94.94,0,0,1,.82-.38.87.87,0,0,1,.83.44,1.07,1.07,0,0,1,.92-.44A.92.92,0,0,1,74.93,27.47Z" transform="translate(-0.06 -0.06)"/><path class="cls-8" d="M78,27.79H76a.81.81,0,0,0,.87.7.89.89,0,0,0,.68-.29l.24.28a1.3,1.3,0,0,1-2.22-.84,1.19,1.19,0,1,1,2.38,0S78,27.75,78,27.79ZM76,27.48h1.53a.77.77,0,0,0-1.53,0Z" transform="translate(-0.06 -0.06)"/><path class="cls-8" d="M79,28.55a.94.94,0,0,1-.08.33l-.21.62h-.28l.16-.67a.3.3,0,1,1,.41-.28Z" transform="translate(-0.06 -0.06)"/><path class="cls-8" d="M80.15,29.59l.14-.33a.56.56,0,0,0,.35.11c.23,0,.36-.14.36-.41V26.45h.43V29a.71.71,0,0,1-.76.79A.84.84,0,0,1,80.15,29.59Zm.77-3.88a.29.29,0,0,1,.29-.28.28.28,0,1,1-.29.28Z" transform="translate(-0.06 -0.06)"/><path class="cls-8" d="M84.54,26.45v2.39h-.41v-.36a1,1,0,0,1-.81.38.93.93,0,0,1-1-1V26.45h.44v1.33c0,.46.23.7.64.7a.7.7,0,0,0,.74-.79V26.45Z" transform="translate(-0.06 -0.06)"/><path class="cls-8" d="M85.12,28.59l.18-.35a1.52,1.52,0,0,0,.84.25c.4,0,.57-.12.57-.32,0-.54-1.51-.08-1.51-1,0-.43.38-.72,1-.72a1.64,1.64,0,0,1,.86.22l-.18.34a1.24,1.24,0,0,0-.69-.19c-.38,0-.56.14-.56.33,0,.56,1.51.1,1.51,1,0,.43-.39.7-1,.7A1.79,1.79,0,0,1,85.12,28.59Z" transform="translate(-0.06 -0.06)"/><path class="cls-8" d="M89.08,28.7a.81.81,0,0,1-.52.16.67.67,0,0,1-.75-.74V26.81H87.4v-.36h.41v-.52h.43v.52h.68v.36h-.68V28.1c0,.26.13.4.37.4a.55.55,0,0,0,.34-.11Z" transform="translate(-0.06 -0.06)"/><path class="cls-8" d="M93.09,27.79H91.16a.8.8,0,0,0,.86.7.91.91,0,0,0,.69-.29l.24.28a1.21,1.21,0,0,1-.94.38,1.2,1.2,0,0,1-1.29-1.22,1.17,1.17,0,0,1,1.2-1.21,1.15,1.15,0,0,1,1.18,1.23A.62.62,0,0,1,93.09,27.79Zm-1.93-.31h1.53a.76.76,0,0,0-.77-.69A.74.74,0,0,0,91.16,27.48Z" transform="translate(-0.06 -0.06)"/><path class="cls-8" d="M95.58,27.4v1.44h-.41v-.32a.87.87,0,0,1-.78.34c-.54,0-.88-.28-.88-.7s.25-.69,1-.69h.68v-.09c0-.37-.21-.58-.64-.58a1.17,1.17,0,0,0-.75.26l-.18-.32a1.55,1.55,0,0,1,1-.31C95.21,26.43,95.58,26.74,95.58,27.4Zm-.43.71v-.33h-.66c-.43,0-.55.16-.55.36s.19.39.52.39A.69.69,0,0,0,95.15,28.11Z" transform="translate(-0.06 -0.06)"/><path class="cls-8" d="M96.15,28.59l.18-.35a1.46,1.46,0,0,0,.83.25c.4,0,.57-.12.57-.32,0-.54-1.51-.08-1.51-1,0-.43.39-.72,1-.72a1.7,1.7,0,0,1,.87.22L97.9,27a1.22,1.22,0,0,0-.69-.19c-.38,0-.56.14-.56.33,0,.56,1.51.1,1.51,1,0,.43-.39.7-1,.7A1.76,1.76,0,0,1,96.15,28.59Z" transform="translate(-0.06 -0.06)"/><path class="cls-8" d="M98.69,25.71a.29.29,0,0,1,.29-.28A.28.28,0,1,1,99,26,.28.28,0,0,1,98.69,25.71Zm.08.74h.43v2.39h-.43Z" transform="translate(-0.06 -0.06)"/><path class="cls-8" d="M102.23,27.79H100.3a.8.8,0,0,0,.86.7.91.91,0,0,0,.69-.29l.24.28a1.21,1.21,0,0,1-.94.38,1.2,1.2,0,0,1-1.29-1.22,1.17,1.17,0,0,1,1.2-1.21,1.15,1.15,0,0,1,1.18,1.23A.62.62,0,0,1,102.23,27.79Zm-1.93-.31h1.53a.76.76,0,0,0-.77-.69A.74.74,0,0,0,100.3,27.48Z" transform="translate(-0.06 -0.06)"/><path class="cls-8" d="M104.18,26.43v.42h-.09a.72.72,0,0,0-.76.81v1.19h-.43V26.45h.42v.4A.9.9,0,0,1,104.18,26.43Z" transform="translate(-0.06 -0.06)"/></svg>